<svg width="41" height="39" viewBox="0 0 41 39" fill="none" xmlns="http://www.w3.org/2000/svg">
<path d="M24.5 8.16667V4.08333H16.3333V8.16667H24.5ZM4.08333 14.2917V32.6667C4.08333 33.7896 5.00208 34.7083 6.125 34.7083H34.7083C35.8312 34.7083 36.75 33.7896 36.75 32.6667V14.2917C36.75 13.1688 35.8312 12.25 34.7083 12.25H6.125C5.00208 12.25 4.08333 13.1688 4.08333 14.2917ZM36.75 8.16667C39.0162 8.16667 40.8333 9.98375 40.8333 12.25V34.7083C40.8333 36.9746 39.0162 38.7917 36.75 38.7917H4.08333C1.81708 38.7917 0 36.9746 0 34.7083L0.0204166 12.25C0.0204166 9.98375 1.81708 8.16667 4.08333 8.16667H12.25V4.08333C12.25 1.81708 14.0671 0 16.3333 0H24.5C26.7662 0 28.5833 1.81708 28.5833 4.08333V8.16667H36.75Z" fill="#5C4D3C"/>
</svg>
