<svg width="63" height="63" viewBox="0 0 63 63" fill="none" xmlns="http://www.w3.org/2000/svg">
<path d="M38.875 6.3125V10.25C38.875 13.9618 38.875 15.8176 40.03 16.97C41.1797 18.125 43.0356 18.125 46.75 18.125H50.6875" stroke="#5C4D3C" stroke-width="3.9375" stroke-linecap="round" stroke-linejoin="round"/>
<path d="M20.5 28.625H41.5M20.5 36.5H41.5M20.5 44.375H31.4463M10 41.75V20.75C10 13.3265 10 9.61212 12.3074 7.30737C14.6121 5 18.3265 5 25.75 5H36.7015C37.7725 5 38.3106 5 38.7936 5.1995C39.274 5.399 39.6546 5.777 40.4133 6.53825L50.4617 16.5868C51.223 17.348 51.601 17.726 51.8005 18.209C52 18.6894 52 19.2275 52 20.2985V41.75C52 49.1735 52 52.8879 49.6926 55.1926C47.3879 57.5 43.6735 57.5 36.25 57.5H25.75C18.3265 57.5 14.6121 57.5 12.3074 55.1926C10 52.8879 10 49.1735 10 41.75Z" stroke="#5C4D3C" stroke-width="3.9375" stroke-linecap="round" stroke-linejoin="round"/>
</svg>
