<svg width="39" height="39" viewBox="0 0 39 39" fill="none" xmlns="http://www.w3.org/2000/svg">
<path fill-rule="evenodd" clip-rule="evenodd" d="M32.6905 5.71447C31.3403 4.36468 29.5092 3.60641 27.6001 3.60641C25.6909 3.60641 23.8599 4.36468 22.5097 5.71447L5.70967 22.5145C4.3978 23.8721 3.67165 25.6907 3.68761 27.5785C3.70357 29.4663 4.46036 31.2723 5.79498 32.6076C7.12961 33.9428 8.93528 34.7005 10.8231 34.7173C12.7109 34.7342 14.5298 34.0089 15.8881 32.6977H15.8905L17.0833 31.4977C17.4216 31.1685 17.8758 30.9854 18.3478 30.9879C18.8199 30.9904 19.2721 31.1782 19.607 31.5109C19.9419 31.8436 20.1327 32.2945 20.1383 32.7666C20.1439 33.2386 19.9638 33.6939 19.6369 34.0345L18.4417 35.2369L18.4369 35.2417C16.4115 37.2671 13.6644 38.4049 10.8001 38.4049C7.93571 38.4049 5.18867 37.2671 3.16327 35.2417C1.13786 33.2163 0 30.4692 0 27.6049C0 24.7405 1.13786 21.9935 3.16327 19.9681L19.9633 3.16807C21.9874 1.14139 24.7337 0.00180249 27.5981 2.1364e-06C30.4624 -0.00179821 33.2102 1.13434 35.2369 3.15847C37.2635 5.1826 38.4031 7.92892 38.4049 10.7933C38.4067 13.6576 37.2706 16.4054 35.2465 18.4321L26.9545 26.9593C26.3755 27.5698 25.6801 28.0582 24.9093 28.3957C24.1385 28.7331 23.3079 28.9127 22.4666 28.9239C21.6253 28.9351 20.7902 28.7776 20.0107 28.4608C19.2312 28.1439 18.5231 27.6742 17.9281 27.0792C17.3332 26.4842 16.8634 25.7761 16.5466 24.9966C16.2297 24.2171 16.0723 23.3821 16.0835 22.5407C16.0946 21.6994 16.2742 20.8688 16.6117 20.098C16.9491 19.3272 17.4375 18.6318 18.0481 18.0529L26.3281 9.77047C26.494 9.59847 26.6926 9.46125 26.9121 9.36682C27.1317 9.27238 27.3679 9.22261 27.6069 9.22042C27.8459 9.21823 28.0829 9.26367 28.3042 9.35407C28.5254 9.44447 28.7265 9.57803 28.8956 9.74696C29.0646 9.91588 29.1984 10.1168 29.289 10.338C29.3796 10.5591 29.4253 10.7961 29.4233 11.0351C29.4213 11.2741 29.3718 11.5104 29.2776 11.73C29.1833 11.9497 29.0463 12.1483 28.8745 12.3145L20.5945 20.5969C20.3431 20.847 20.1435 21.1441 20.007 21.4713C19.8705 21.7986 19.7997 22.1495 19.7988 22.5041C19.798 22.8587 19.8669 23.2099 20.0018 23.5378C20.1366 23.8658 20.3348 24.1639 20.5849 24.4153C20.835 24.6666 21.1321 24.8662 21.4593 25.0028C21.7866 25.1393 22.1375 25.21 22.4921 25.2109C22.8466 25.2118 23.1979 25.1428 23.5258 25.008C23.8538 24.8731 24.1519 24.675 24.4033 24.4249L32.6929 15.8977C34.0427 14.5475 34.8009 12.7165 34.8009 10.8073C34.8009 8.89809 34.0427 7.06707 32.6929 5.71687" fill="#5C4D3C"/>
</svg>
