<svg width="35" height="35" viewBox="0 0 35 35" fill="none" xmlns="http://www.w3.org/2000/svg">
<path d="M17.5 8.75V17.5H26.25M17.5 33.25C15.4317 33.25 13.3836 32.8426 11.4727 32.0511C9.56186 31.2596 7.82559 30.0995 6.36307 28.6369C4.90055 27.1744 3.74041 25.4381 2.9489 23.5273C2.15739 21.6164 1.75 19.5683 1.75 17.5C1.75 15.4317 2.15739 13.3836 2.9489 11.4727C3.74041 9.56186 4.90055 7.82559 6.36307 6.36307C7.82559 4.90055 9.56186 3.74041 11.4727 2.9489C13.3836 2.15739 15.4317 1.75 17.5 1.75C21.6772 1.75 25.6832 3.40937 28.6369 6.36307C31.5906 9.31677 33.25 13.3228 33.25 17.5C33.25 21.6772 31.5906 25.6832 28.6369 28.6369C25.6832 31.5906 21.6772 33.25 17.5 33.25Z" stroke="#5C4D3C" stroke-opacity="0.75" stroke-width="3.5" stroke-linecap="round" stroke-linejoin="round"/>
</svg>
