<svg width="32" height="38" viewBox="0 0 32 38" fill="none" xmlns="http://www.w3.org/2000/svg">
<path d="M11.25 30C10.2187 30 9.33625 29.6331 8.6025 28.8994C7.86875 28.1656 7.50125 27.2825 7.5 26.25V3.75C7.5 2.71875 7.8675 1.83625 8.6025 1.1025C9.3375 0.36875 10.22 0.00125 11.25 0H28.125C29.1563 0 30.0394 0.3675 30.7744 1.1025C31.5094 1.8375 31.8762 2.72 31.875 3.75V26.25C31.875 27.2813 31.5081 28.1644 30.7744 28.8994C30.0406 29.6344 29.1575 30.0013 28.125 30H11.25ZM11.25 26.25H28.125V3.75H11.25V26.25ZM3.75 37.5C2.71875 37.5 1.83625 37.1331 1.1025 36.3994C0.36875 35.6656 0.00125 34.7825 0 33.75V9.375C0 8.84375 0.18 8.39875 0.54 8.04C0.9 7.68125 1.345 7.50125 1.875 7.5C2.405 7.49875 2.85062 7.67875 3.21187 8.04C3.57312 8.40125 3.7525 8.84625 3.75 9.375V33.75H22.5C23.0312 33.75 23.4769 33.93 23.8369 34.29C24.1969 34.65 24.3762 35.095 24.375 35.625C24.3738 36.155 24.1937 36.6006 23.835 36.9619C23.4762 37.3231 23.0312 37.5025 22.5 37.5H3.75Z" fill="#5C4D3C"/>
</svg>
