<svg width="33" height="37" viewBox="0 0 33 37" fill="none" xmlns="http://www.w3.org/2000/svg">
<path d="M9.03125 22.8438C9.73573 22.8438 10.4114 22.5639 10.9095 22.0658C11.4076 21.5676 11.6875 20.892 11.6875 20.1875C11.6875 19.483 11.4076 18.8074 10.9095 18.3092C10.4114 17.8111 9.73573 17.5312 9.03125 17.5312C8.32677 17.5312 7.65114 17.8111 7.153 18.3092C6.65485 18.8074 6.375 19.483 6.375 20.1875C6.375 20.892 6.65485 21.5676 7.153 22.0658C7.65114 22.5639 8.32677 22.8437 9.03125 22.8438ZM9.03125 30.2812C9.73573 30.2812 10.4114 30.0014 10.9095 29.5033C11.4076 29.0051 11.6875 28.3295 11.6875 27.625C11.6875 26.9205 11.4076 26.2449 10.9095 25.7467C10.4114 25.2486 9.73573 24.9688 9.03125 24.9688C8.32677 24.9688 7.65114 25.2486 7.153 25.7467C6.65485 26.2449 6.375 26.9205 6.375 27.625C6.375 28.3295 6.65485 29.0051 7.153 29.5033C7.65114 30.0014 8.32677 30.2812 9.03125 30.2812ZM19.125 20.1875C19.125 20.892 18.8451 21.5676 18.347 22.0658C17.8489 22.5639 17.1732 22.8438 16.4688 22.8438C15.7643 22.8438 15.0886 22.5639 14.5905 22.0658C14.0924 21.5676 13.8125 20.892 13.8125 20.1875C13.8125 19.483 14.0924 18.8074 14.5905 18.3092C15.0886 17.8111 15.7643 17.5313 16.4688 17.5312C17.1732 17.5312 17.8489 17.8111 18.347 18.3092C18.8451 18.8074 19.125 19.483 19.125 20.1875ZM16.4688 30.2812C17.1732 30.2812 17.8489 30.0014 18.347 29.5033C18.8451 29.0051 19.125 28.3295 19.125 27.625C19.125 26.9205 18.8451 26.2449 18.347 25.7467C17.8489 25.2486 17.1732 24.9688 16.4688 24.9688C15.7643 24.9688 15.0886 25.2486 14.5905 25.7467C14.0924 26.2449 13.8125 26.9205 13.8125 27.625C13.8125 28.3295 14.0924 29.0051 14.5905 29.5033C15.0886 30.0014 15.7643 30.2812 16.4688 30.2812ZM26.5625 20.1875C26.5625 20.892 26.2826 21.5676 25.7845 22.0658C25.2864 22.5639 24.6107 22.8438 23.9062 22.8438C23.2018 22.8438 22.5261 22.5639 22.028 22.0658C21.5299 21.5676 21.25 20.892 21.25 20.1875C21.25 19.483 21.5299 18.8074 22.028 18.3092C22.5261 17.8111 23.2018 17.5313 23.9062 17.5312C24.6107 17.5312 25.2864 17.8111 25.7845 18.3092C26.2826 18.8074 26.5625 19.483 26.5625 20.1875Z" fill="#5C4D3C" fill-opacity="0.75"/>
<path fill-rule="evenodd" clip-rule="evenodd" d="M7.96875 0C8.39144 0 8.79681 0.167912 9.0957 0.466798C9.39459 0.765684 9.5625 1.17106 9.5625 1.59375V3.1875H23.375V1.59375C23.375 1.17106 23.5429 0.765684 23.8418 0.466798C24.1407 0.167912 24.5461 0 24.9688 0C25.3914 0 25.7968 0.167912 26.0957 0.466798C26.3946 0.765684 26.5625 1.17106 26.5625 1.59375V3.2045C26.8855 3.213 27.1865 3.22858 27.4656 3.25125C28.2731 3.315 29.0296 3.4595 29.7457 3.825C30.8455 4.3853 31.7397 5.27945 32.3 6.37925C32.6655 7.09537 32.81 7.85187 32.8737 8.65937C32.9375 9.435 32.9375 10.3806 32.9375 11.5175V27.795C32.9375 28.9319 32.9375 29.8775 32.8737 30.6531C32.81 31.4606 32.6655 32.2171 32.3 32.9332C31.7403 34.0327 30.8469 34.9268 29.7479 35.4875C29.0296 35.853 28.2731 35.9975 27.4656 36.0612C26.69 36.125 25.7444 36.125 24.6096 36.125H8.33C7.19313 36.125 6.2475 36.125 5.47187 36.0612C4.66437 35.9975 3.90787 35.853 3.19175 35.4875C2.0926 34.9283 1.19852 34.0357 0.6375 32.9375C0.272 32.2193 0.1275 31.4628 0.0637504 30.6553C4.47268e-07 29.8796 0 28.934 0 27.7993V11.5175C0 10.3806 4.47268e-07 9.435 0.0637504 8.65937C0.1275 7.85187 0.272 7.09537 0.6375 6.37925C1.1978 5.27945 2.09195 4.3853 3.19175 3.825C3.90787 3.4595 4.66437 3.315 5.47187 3.25125C5.75096 3.22858 6.052 3.213 6.375 3.2045V1.59375C6.375 1.38446 6.41622 1.17721 6.49632 0.983848C6.57641 0.790486 6.6938 0.614792 6.8418 0.466798C6.98979 0.318805 7.16549 0.20141 7.35885 0.121317C7.55221 0.0412234 7.75946 0 7.96875 0ZM6.375 6.90625V6.392C6.1601 6.39861 5.94541 6.41066 5.73113 6.42813C5.12125 6.477 4.83013 6.56625 4.63888 6.664C4.13826 6.9188 3.7313 7.32576 3.4765 7.82638C3.37875 8.01763 3.2895 8.30875 3.24063 8.91863C3.18963 9.54763 3.1875 10.3636 3.1875 11.5812V12.75H29.75V11.5812C29.75 10.3657 29.75 9.54763 29.6969 8.91863C29.648 8.30875 29.5588 8.01763 29.461 7.82638C29.2062 7.32576 28.7992 6.9188 28.2986 6.664C28.1074 6.56625 27.8163 6.477 27.2043 6.42813C26.9907 6.41069 26.7767 6.39865 26.5625 6.392V6.90625C26.5625 7.32894 26.3946 7.73432 26.0957 8.0332C25.7968 8.33209 25.3914 8.5 24.9688 8.5C24.5461 8.5 24.1407 8.33209 23.8418 8.0332C23.5429 7.73432 23.375 7.32894 23.375 6.90625V6.375H9.5625V6.90625C9.5625 7.32894 9.39459 7.73432 9.0957 8.0332C8.79681 8.33209 8.39144 8.5 7.96875 8.5C7.54606 8.5 7.14068 8.33209 6.8418 8.0332C6.54291 7.73432 6.375 7.32894 6.375 6.90625ZM29.75 14.875H3.1875V27.7312C3.1875 28.9467 3.1875 29.7649 3.24063 30.3918C3.2895 31.0038 3.37875 31.2949 3.4765 31.4861C3.7315 31.9876 4.13738 32.3935 4.63888 32.6485C4.83013 32.7463 5.12125 32.8355 5.73113 32.8844C6.36013 32.9354 7.17612 32.9375 8.39375 32.9375H24.5438C25.7593 32.9375 26.5774 32.9375 27.2043 32.8844C27.8163 32.8355 28.1074 32.7463 28.2986 32.6485C28.7992 32.3937 29.2062 31.9867 29.461 31.4861C29.5588 31.2949 29.648 31.0038 29.6969 30.3918C29.7479 29.7649 29.75 28.9467 29.75 27.7312V14.875Z" fill="#5C4D3C" fill-opacity="0.75"/>
<path fill-rule="evenodd" clip-rule="evenodd" d="M11.6875 9.5625C11.6875 9.13981 11.8554 8.73443 12.1543 8.43555C12.4532 8.13666 12.8586 7.96875 13.2812 7.96875H19.6562C20.0789 7.96875 20.4843 8.13666 20.7832 8.43555C21.0821 8.73443 21.25 9.13981 21.25 9.5625C21.25 9.98519 21.0821 10.3906 20.7832 10.6895C20.4843 10.9883 20.0789 11.1562 19.6562 11.1562H13.2812C12.8586 11.1562 12.4532 10.9883 12.1543 10.6895C11.8554 10.3906 11.6875 9.98519 11.6875 9.5625Z" fill="#5C4D3C" fill-opacity="0.75"/>
</svg>
