<svg width="41" height="37" viewBox="0 0 41 37" fill="none" xmlns="http://www.w3.org/2000/svg">
<path fill-rule="evenodd" clip-rule="evenodd" d="M10.2083 36.75C7.50091 36.75 4.90439 35.6745 2.98995 33.76C1.07552 31.8456 0 29.2491 0 26.5417V20.4167C0 19.8752 0.215103 19.3559 0.59799 18.973C0.980877 18.5901 1.50018 18.375 2.04167 18.375C2.58315 18.375 3.10246 18.5901 3.48534 18.973C3.86823 19.3559 4.08333 19.8752 4.08333 20.4167V26.5417C4.08333 28.1661 4.72864 29.724 5.8773 30.8727C7.02596 32.0214 8.58388 32.6667 10.2083 32.6667H30.625C32.2494 32.6667 33.8074 32.0214 34.956 30.8727C36.1047 29.724 36.75 28.1661 36.75 26.5417V20.4167C36.75 19.8752 36.9651 19.3559 37.348 18.973C37.7309 18.5901 38.2502 18.375 38.7917 18.375C39.3331 18.375 39.8525 18.5901 40.2353 18.973C40.6182 19.3559 40.8333 19.8752 40.8333 20.4167V26.5417C40.8333 29.2491 39.7578 31.8456 37.8434 33.76C35.9289 35.6745 33.3324 36.75 30.625 36.75H10.2083Z" fill="#5C4D3C"/>
<path fill-rule="evenodd" clip-rule="evenodd" d="M32.0842 14.0875C32.2719 14.2793 32.42 14.5061 32.5199 14.7551C32.6199 15.0042 32.6697 15.2704 32.6667 15.5388C32.6637 15.8071 32.6078 16.0721 32.5022 16.3188C32.3967 16.5655 32.2435 16.789 32.0515 16.9765L22.864 25.9598C22.4826 26.3327 21.9703 26.5414 21.4369 26.5414C20.9035 26.5414 20.3912 26.3327 20.0098 25.9598L10.8223 16.9765C10.6265 16.79 10.4696 16.5665 10.3609 16.319C10.2521 16.0714 10.1936 15.8047 10.1888 15.5344C10.184 15.2641 10.2329 14.9955 10.3327 14.7442C10.4325 14.4929 10.5812 14.2639 10.7702 14.0706C10.9592 13.8773 11.1848 13.7234 11.4337 13.6179C11.6827 13.5124 11.9501 13.4575 12.2205 13.4562C12.4909 13.4549 12.7588 13.5074 13.0088 13.6105C13.2587 13.7136 13.4857 13.8653 13.6765 14.0569L19.3952 19.649V2.04167C19.3952 1.50018 19.6103 0.980878 19.9932 0.597991C20.3761 0.215104 20.8954 0 21.4369 0C21.9784 0 22.4977 0.215104 22.8806 0.597991C23.2635 0.980878 23.4786 1.50018 23.4786 2.04167V19.649L29.1952 14.0569C29.387 13.8692 29.6139 13.7211 29.8629 13.6212C30.1119 13.5212 30.3782 13.4713 30.6465 13.4744C30.9148 13.4774 31.1799 13.5333 31.4266 13.6388C31.6733 13.7444 31.8967 13.8976 32.0842 14.0895V14.0875Z" fill="#5C4D3C"/>
</svg>
