<svg width="33" height="41" viewBox="0 0 33 41" fill="none" xmlns="http://www.w3.org/2000/svg">
<path d="M30.6336 36.6321H2.05025C1.50876 36.6321 0.989459 36.8472 0.606572 37.2301C0.223685 37.613 0.00858103 38.1323 0.00858103 38.6737C0.00858103 39.2152 0.223685 39.7345 0.606572 40.1174C0.989459 40.5003 1.50876 40.7154 2.05025 40.7154H30.6336C31.1751 40.7154 31.6944 40.5003 32.0773 40.1174C32.4601 39.7345 32.6753 39.2152 32.6753 38.6737C32.6753 38.1323 32.4601 37.613 32.0773 37.2301C31.6944 36.8472 31.1751 36.6321 30.6336 36.6321ZM2.05025 32.5487H2.234L10.7477 31.7729C11.6804 31.68 12.5527 31.2691 13.2182 30.6092L31.5932 12.2342C32.3064 11.4807 32.6918 10.4753 32.665 9.43817C32.6382 8.40106 32.2014 7.41686 31.4502 6.70124L25.8561 1.10708C25.126 0.421271 24.1692 0.0277657 23.1679 0.00141438C22.1665 -0.024937 21.1904 0.317704 20.4252 0.964158L2.05025 19.3392C1.39031 20.0047 0.979403 20.8769 0.886497 21.8096L0.00858103 30.3233C-0.0189223 30.6224 0.0198803 30.9238 0.122223 31.2061C0.224565 31.4884 0.387927 31.7447 0.600664 31.9567C0.791438 32.1459 1.01769 32.2956 1.26644 32.3972C1.51519 32.4988 1.78155 32.5503 2.05025 32.5487ZM23.0182 3.96541L28.5919 9.53916L24.5086 13.5204L19.0369 8.04874L23.0182 3.96541ZM4.84733 22.1567L16.3419 10.7437L21.8544 16.2562L10.4211 27.6896L4.29608 28.2612L4.84733 22.1567Z" fill="#5C4D3C"/>
</svg>
