<svg width="36" height="36" viewBox="0 0 36 36" fill="none" xmlns="http://www.w3.org/2000/svg">
<path d="M20 34L34 20M20 34V22C20 21.4696 20.2107 20.9609 20.5858 20.5858C20.9609 20.2107 21.4696 20 22 20H34M20 34H6C4.93913 34 3.92172 33.5786 3.17157 32.8284C2.42143 32.0783 2 31.0609 2 30V6C2 4.93913 2.42143 3.92172 3.17157 3.17157C3.92172 2.42143 4.93913 2 6 2H30C31.0609 2 32.0783 2.42143 32.8284 3.17157C33.5786 3.92172 34 4.93913 34 6V20" stroke="#5C4D3C" stroke-width="4" stroke-linecap="round" stroke-linejoin="round"/>
</svg>
