<svg width="44" height="31" viewBox="0 0 44 31" fill="none" xmlns="http://www.w3.org/2000/svg">
<path d="M27.7497 3.08301H40.083L33.9163 27.7497M15.4163 6.16634C15.4163 5.34859 15.0915 4.56433 14.5133 3.9861C13.935 3.40786 13.1508 3.08301 12.333 3.08301H6.16634C5.34859 3.08301 4.56433 3.40786 3.9861 3.9861C3.40786 4.56433 3.08301 5.34859 3.08301 6.16634V24.6663C3.08301 25.4841 3.40786 26.2683 3.9861 26.8466C4.56433 27.4248 5.34859 27.7497 6.16634 27.7497H12.333C13.1508 27.7497 13.935 27.4248 14.5133 26.8466C15.0915 26.2683 15.4163 25.4841 15.4163 24.6663V18.4997C15.4163 17.6819 15.0915 16.8977 14.5133 16.3194C13.935 15.7412 13.1508 15.4163 12.333 15.4163H3.08301" stroke="#5C4D3C" stroke-width="6.16667" stroke-linecap="round" stroke-linejoin="round"/>
</svg>
