<svg width="47" height="51" viewBox="0 0 47 51" fill="none" xmlns="http://www.w3.org/2000/svg">
<path d="M33.1661 4.47706C33.5105 3.96924 34.0462 3.61635 34.6557 3.49599C35.2651 3.37562 35.8984 3.49763 36.4161 3.83518C39.6411 5.93283 42.2863 8.7816 44.1153 12.127C45.9444 15.4724 46.9003 19.2102 46.8978 23.0065C46.8978 35.7129 36.3997 46.0129 23.4489 46.0129C10.4981 46.0129 5.0405e-06 35.7129 5.0405e-06 23.0065C-0.00253296 19.2102 0.953421 15.4724 2.78246 12.127C4.61151 8.7816 7.25668 5.93283 10.4817 3.83518C10.9997 3.49745 11.6333 3.37546 12.243 3.49605C12.8527 3.61665 13.3886 3.96994 13.7329 4.47821C14.0771 4.98648 14.2014 5.60809 14.0785 6.20631C13.9556 6.80452 13.5955 7.33033 13.0775 7.66805C9.71966 9.85393 7.16853 13.0426 5.80177 16.7618C4.435 20.4811 4.32524 24.5334 5.48875 28.3186C6.65226 32.1039 9.02719 35.421 12.2619 37.7787C15.4966 40.1365 19.4192 41.4096 23.4489 41.4096C27.4786 41.4096 31.4012 40.1365 34.6359 37.7787C37.8706 35.421 40.2455 32.1039 41.409 28.3186C42.5726 24.5334 42.4628 20.4811 41.096 16.7618C39.7293 13.0426 37.1781 9.85393 33.8203 7.66805C33.5635 7.50094 33.3428 7.2858 33.1708 7.03495C32.9988 6.78409 32.8789 6.50243 32.818 6.20607C32.757 5.90972 32.7561 5.60447 32.8155 5.3078C32.8748 5.01112 32.9955 4.72883 33.1661 4.47706ZM23.4489 0C24.0232 7.43352e-05 24.5776 0.206957 25.0068 0.581409C25.436 0.95586 25.7102 1.47184 25.7774 2.03147L25.7938 2.30065V25.3071C25.7931 25.8935 25.5643 26.4575 25.154 26.8839C24.7437 27.3103 24.183 27.5669 23.5863 27.6013C22.9897 27.6356 22.4022 27.4452 21.9439 27.0688C21.4856 26.6924 21.191 26.1586 21.1204 25.5763L21.104 25.3071V2.30065C21.104 1.69048 21.3511 1.1053 21.7908 0.673844C22.2306 0.242389 22.827 0 23.4489 0Z" fill="#5C4D3C"/>
</svg>
