<svg width="49" height="49" viewBox="0 0 49 49" fill="none" xmlns="http://www.w3.org/2000/svg">
<path d="M21.3757 0C33.1751 0 42.7515 9.57633 42.7515 21.3757C42.7515 33.1751 33.1751 42.7515 21.3757 42.7515C9.57633 42.7515 0 33.1751 0 21.3757C0 9.57633 9.57633 0 21.3757 0ZM21.3757 38.0013C30.5602 38.0013 38.0013 30.5602 38.0013 21.3757C38.0013 12.1913 30.5602 4.75016 21.3757 4.75016C12.1913 4.75016 4.75016 12.1913 4.75016 21.3757C4.75016 30.5602 12.1913 38.0013 21.3757 38.0013ZM41.5283 38.1699L48.2474 44.8867L44.8867 48.2474L38.1699 41.5283L41.5283 38.1699Z" fill="#5C4D3C"/>
</svg>
