<svg width="33" height="32" viewBox="0 0 33 32" fill="none" xmlns="http://www.w3.org/2000/svg">
<path d="M32.6884 28.9499C30.5997 25.284 27.3382 22.4277 23.4289 20.8406C25.373 19.3826 26.809 17.3499 27.5335 15.0303C28.2581 12.7108 28.2345 10.2221 27.466 7.9168C26.6976 5.61146 25.2233 3.60633 23.2519 2.18546C21.2806 0.764589 18.9121 0 16.4821 0C14.052 0 11.6836 0.764589 9.71221 2.18546C7.74085 3.60633 6.26653 5.61146 5.49808 7.9168C4.72963 10.2221 4.70602 12.7108 5.43058 15.0303C6.15514 17.3499 7.59114 19.3826 9.53518 20.8406C5.62592 22.4277 2.36443 25.284 0.275726 28.9499C0.146303 29.158 0.0600428 29.39 0.0220741 29.6321C-0.0158946 29.8742 -0.00479685 30.1215 0.0547077 30.3592C0.114212 30.597 0.220909 30.8203 0.368454 31.016C0.516 31.2117 0.701382 31.3757 0.913581 31.4983C1.12578 31.6209 1.36046 31.6995 1.60368 31.7296C1.84689 31.7597 2.09367 31.7406 2.32935 31.6734C2.56503 31.6062 2.78479 31.4923 2.97557 31.3385C3.16635 31.1847 3.32426 30.9941 3.43991 30.778C6.20038 26.0066 11.0754 23.1608 16.4821 23.1608C21.8887 23.1608 26.7637 26.0081 29.5242 30.778C29.7748 31.181 30.1724 31.4707 30.6327 31.586C31.0931 31.7012 31.5802 31.6329 31.9911 31.3955C32.4021 31.1581 32.7046 30.7702 32.8347 30.3138C32.9648 29.8574 32.9123 29.3683 32.6884 28.9499ZM8.56018 11.5827C8.56018 10.0159 9.02479 8.48428 9.89526 7.18154C10.7657 5.87879 12.003 4.86343 13.4505 4.26384C14.898 3.66425 16.4908 3.50737 18.0275 3.81304C19.5642 4.1187 20.9758 4.87319 22.0837 5.98108C23.1916 7.08898 23.946 8.50052 24.2517 10.0372C24.5574 11.5739 24.4005 13.1667 23.8009 14.6143C23.2013 16.0618 22.186 17.299 20.8832 18.1695C19.5805 19.04 18.0489 19.5046 16.4821 19.5046C14.3818 19.5022 12.3682 18.6668 10.8831 17.1816C9.398 15.6965 8.5626 13.683 8.56018 11.5827Z" fill="#5C4D3C" fill-opacity="0.75"/>
</svg>
