<svg width="49" height="42" viewBox="0 0 49 42" fill="none" xmlns="http://www.w3.org/2000/svg">
<path d="M24.9674 24.3491C26.5988 24.5164 28.1102 25.2827 29.2091 26.5C30.308 27.7172 30.9165 29.2988 30.9167 30.9387C30.9167 34.344 28.8408 37.1618 26.0495 39.0212C23.2449 40.8939 19.4907 41.9804 15.4583 41.9804C11.4259 41.9804 7.67175 40.8939 4.86717 39.0212C2.07142 37.1662 0 34.344 0 30.9387C0 29.1817 0.697989 27.4966 1.94042 26.2542C3.18285 25.0117 4.86794 24.3137 6.625 24.3137H24.2917L24.9674 24.3491ZM41.9495 24.3137C43.7066 24.3137 45.3917 25.0117 46.6341 26.2542C47.8765 27.4966 48.5745 29.1817 48.5745 30.9387C48.5745 34.0083 46.6709 36.2873 44.2329 37.6874C41.8126 39.0787 38.6458 39.7721 35.3245 39.7721C34.2086 39.7691 33.1191 39.6882 32.0562 39.5292C33.0897 38.3102 33.9553 36.9101 34.5339 35.3333C34.796 35.3481 35.0595 35.3554 35.3245 35.3554C38.1026 35.3554 40.4567 34.768 42.0334 33.8626C43.5925 32.966 44.1578 31.9325 44.1578 30.9387C44.1578 30.3531 43.9252 29.7914 43.511 29.3772C43.0969 28.9631 42.5352 28.7304 41.9495 28.7304H35.1037C34.7709 27.1278 34.086 25.6191 33.0985 24.3137H41.9495ZM6.625 28.7304C6.03931 28.7304 5.47762 28.9631 5.06347 29.3772C4.64933 29.7914 4.41667 30.3531 4.41667 30.9387C4.41667 32.4095 5.31325 34.0127 7.314 35.3466C9.3015 36.6716 12.1723 37.5637 15.4583 37.5637C18.7399 37.5637 21.6152 36.6716 23.6027 35.3466C25.6034 34.0127 26.5 32.4095 26.5 30.9387C26.5001 30.4297 26.3243 29.9362 26.0024 29.5418C25.6804 29.1474 25.2321 28.8764 24.7333 28.7746L24.2917 28.7304H6.625ZM16.4786 0.0618331C18.928 0.313199 21.1973 1.46379 22.8476 3.29116C24.4979 5.11852 25.4122 7.49287 25.4135 9.95517L25.3605 10.971C25.1071 13.4188 23.9556 15.6859 22.1285 17.3345C20.3013 18.983 17.9281 19.896 15.4672 19.8971L14.4513 19.8441C12.176 19.6119 10.0504 18.602 8.43314 16.9848C6.81588 15.3675 5.80598 13.2419 5.57383 10.9666L5.52083 9.95075C5.52083 7.31241 6.56861 4.78207 8.43378 2.91607C10.299 1.05007 12.8288 0.00117103 15.4672 0L16.4786 0.0618331ZM36.4375 4.4255C37.4525 4.4255 38.4576 4.62542 39.3953 5.01385C40.3331 5.40227 41.1851 5.9716 41.9028 6.68932C42.6206 7.40704 43.1899 8.2591 43.5783 9.19684C43.9667 10.1346 44.1667 11.1397 44.1667 12.1547C44.1667 13.1697 43.9667 14.1747 43.5783 15.1125C43.1899 16.0502 42.6206 16.9023 41.9028 17.62C41.1851 18.3377 40.3331 18.9071 39.3953 19.2955C38.4576 19.6839 37.4525 19.8838 36.4375 19.8838C34.3876 19.8838 32.4217 19.0695 30.9722 17.62C29.5227 16.1705 28.7083 14.2046 28.7083 12.1547C28.7083 10.1048 29.5227 8.13882 30.9722 6.68932C32.4217 5.23982 34.3876 4.4255 36.4375 4.4255ZM15.4672 4.4255C14.741 4.4255 14.0219 4.56853 13.3511 4.84642C12.6802 5.12431 12.0706 5.53162 11.5571 6.0451C11.0436 6.55858 10.6363 7.16816 10.3584 7.83905C10.0805 8.50994 9.9375 9.229 9.9375 9.95517C9.9375 10.6813 10.0805 11.4004 10.3584 12.0713C10.6363 12.7422 11.0436 13.3518 11.5571 13.8652C12.0706 14.3787 12.6802 14.786 13.3511 15.0639C14.0219 15.3418 14.741 15.4848 15.4672 15.4848C16.9337 15.4848 18.3402 14.9022 19.3772 13.8652C20.4142 12.8282 20.9968 11.4217 20.9968 9.95517C20.9968 8.48861 20.4142 7.08212 19.3772 6.0451C18.3402 5.00809 16.9337 4.4255 15.4672 4.4255ZM36.4375 8.84217C35.559 8.84217 34.7164 9.19116 34.0952 9.81237C33.474 10.4336 33.125 11.2761 33.125 12.1547C33.125 13.0332 33.474 13.8757 34.0952 14.497C34.7164 15.1182 35.559 15.4672 36.4375 15.4672C37.316 15.4672 38.1586 15.1182 38.7798 14.497C39.401 13.8757 39.75 13.0332 39.75 12.1547C39.75 11.2761 39.401 10.4336 38.7798 9.81237C38.1586 9.19116 37.316 8.84217 36.4375 8.84217Z" fill="#5C4D3C"/>
</svg>
